<mxfile host="app.diagrams.net" agent="Mozilla/5.0 (Windows NT 10.0; Win64; x64) AppleWebKit/537.36 (KHTML, like Gecko) Chrome/136.0.0.0 Safari/537.36" version="27.0.6">
  <diagram name="Page-1" id="oRd3Rz7GH37iG-4uzvGG">
    <mxGraphModel grid="1" page="1" gridSize="10" guides="1" tooltips="1" connect="1" arrows="1" fold="1" pageScale="1" pageWidth="850" pageHeight="1100" math="0" shadow="0">
      <root>
        <mxCell id="0" />
        <mxCell id="1" parent="0" />
        <mxCell id="1LIkeDpxG71c-wW24D8o-1" value="Donor" style="rounded=0;whiteSpace=wrap;html=1;" vertex="1" parent="1">
          <mxGeometry x="120" y="90" width="120" height="60" as="geometry" />
        </mxCell>
        <mxCell id="1LIkeDpxG71c-wW24D8o-2" value="Donation" style="rounded=0;whiteSpace=wrap;html=1;" vertex="1" parent="1">
          <mxGeometry x="320" y="440" width="120" height="60" as="geometry" />
        </mxCell>
        <mxCell id="1LIkeDpxG71c-wW24D8o-3" value="Hospital\Center" style="rounded=0;whiteSpace=wrap;html=1;" vertex="1" parent="1">
          <mxGeometry x="310" y="280" width="120" height="60" as="geometry" />
        </mxCell>
        <mxCell id="1LIkeDpxG71c-wW24D8o-4" value="Patient" style="rounded=0;whiteSpace=wrap;html=1;" vertex="1" parent="1">
          <mxGeometry x="480" y="90" width="120" height="60" as="geometry" />
        </mxCell>
        <mxCell id="1LIkeDpxG71c-wW24D8o-6" value="D_id" style="ellipse;whiteSpace=wrap;html=1;fontStyle=4" vertex="1" parent="1">
          <mxGeometry x="50" y="40" width="70" height="30" as="geometry" />
        </mxCell>
        <mxCell id="1LIkeDpxG71c-wW24D8o-7" value="D_name" style="ellipse;whiteSpace=wrap;html=1;" vertex="1" parent="1">
          <mxGeometry x="145" y="30" width="70" height="30" as="geometry" />
        </mxCell>
        <mxCell id="1LIkeDpxG71c-wW24D8o-8" value="D_dob" style="ellipse;whiteSpace=wrap;html=1;" vertex="1" parent="1">
          <mxGeometry x="230" y="50" width="70" height="30" as="geometry" />
        </mxCell>
        <mxCell id="1LIkeDpxG71c-wW24D8o-9" value="D_mn" style="ellipse;whiteSpace=wrap;html=1;" vertex="1" parent="1">
          <mxGeometry x="40" y="105" width="70" height="30" as="geometry" />
        </mxCell>
        <mxCell id="1LIkeDpxG71c-wW24D8o-10" value="D_email" style="ellipse;whiteSpace=wrap;html=1;" vertex="1" parent="1">
          <mxGeometry x="250" y="100" width="70" height="30" as="geometry" />
        </mxCell>
        <mxCell id="1LIkeDpxG71c-wW24D8o-11" value="D_age" style="ellipse;whiteSpace=wrap;html=1;" vertex="1" parent="1">
          <mxGeometry x="240" y="150" width="70" height="30" as="geometry" />
        </mxCell>
        <mxCell id="1LIkeDpxG71c-wW24D8o-12" value="D_bg" style="ellipse;whiteSpace=wrap;html=1;" vertex="1" parent="1">
          <mxGeometry x="140" y="180" width="70" height="30" as="geometry" />
        </mxCell>
        <mxCell id="1LIkeDpxG71c-wW24D8o-13" value="D_add" style="ellipse;whiteSpace=wrap;html=1;" vertex="1" parent="1">
          <mxGeometry x="50" y="150" width="70" height="30" as="geometry" />
        </mxCell>
        <mxCell id="1LIkeDpxG71c-wW24D8o-14" value="&lt;u&gt;P_id&lt;/u&gt;" style="ellipse;whiteSpace=wrap;html=1;" vertex="1" parent="1">
          <mxGeometry x="400" y="40" width="70" height="30" as="geometry" />
        </mxCell>
        <mxCell id="1LIkeDpxG71c-wW24D8o-15" value="P_name" style="ellipse;whiteSpace=wrap;html=1;" vertex="1" parent="1">
          <mxGeometry x="500" y="20" width="70" height="30" as="geometry" />
        </mxCell>
        <mxCell id="1LIkeDpxG71c-wW24D8o-16" value="P_mn" style="ellipse;whiteSpace=wrap;html=1;" vertex="1" parent="1">
          <mxGeometry x="620" y="40" width="70" height="30" as="geometry" />
        </mxCell>
        <mxCell id="1LIkeDpxG71c-wW24D8o-17" value="P_bg" style="ellipse;whiteSpace=wrap;html=1;" vertex="1" parent="1">
          <mxGeometry x="600" y="160" width="70" height="30" as="geometry" />
        </mxCell>
        <mxCell id="1LIkeDpxG71c-wW24D8o-18" value="P_age" style="ellipse;whiteSpace=wrap;html=1;" vertex="1" parent="1">
          <mxGeometry x="510" y="190" width="70" height="30" as="geometry" />
        </mxCell>
        <mxCell id="1LIkeDpxG71c-wW24D8o-19" value="P_dob" style="ellipse;whiteSpace=wrap;html=1;" vertex="1" parent="1">
          <mxGeometry x="370" y="160" width="70" height="30" as="geometry" />
        </mxCell>
        <mxCell id="1LIkeDpxG71c-wW24D8o-20" value="P_email" style="ellipse;whiteSpace=wrap;html=1;" vertex="1" parent="1">
          <mxGeometry x="385" y="105" width="70" height="30" as="geometry" />
        </mxCell>
        <mxCell id="1LIkeDpxG71c-wW24D8o-21" value="P_add" style="ellipse;whiteSpace=wrap;html=1;" vertex="1" parent="1">
          <mxGeometry x="650" y="105" width="70" height="30" as="geometry" />
        </mxCell>
        <mxCell id="1LIkeDpxG71c-wW24D8o-22" value="H_name" style="ellipse;whiteSpace=wrap;html=1;" vertex="1" parent="1">
          <mxGeometry x="460" y="250" width="70" height="30" as="geometry" />
        </mxCell>
        <mxCell id="1LIkeDpxG71c-wW24D8o-23" value="H_mn" style="ellipse;whiteSpace=wrap;html=1;" vertex="1" parent="1">
          <mxGeometry x="220" y="340" width="70" height="30" as="geometry" />
        </mxCell>
        <mxCell id="1LIkeDpxG71c-wW24D8o-24" value="&lt;u&gt;H_id&lt;/u&gt;" style="ellipse;whiteSpace=wrap;html=1;" vertex="1" parent="1">
          <mxGeometry x="220" y="260" width="70" height="30" as="geometry" />
        </mxCell>
        <mxCell id="1LIkeDpxG71c-wW24D8o-25" value="H_add" style="ellipse;whiteSpace=wrap;html=1;" vertex="1" parent="1">
          <mxGeometry x="470" y="340" width="70" height="30" as="geometry" />
        </mxCell>
        <mxCell id="1LIkeDpxG71c-wW24D8o-26" value="Don_date" style="ellipse;whiteSpace=wrap;html=1;" vertex="1" parent="1">
          <mxGeometry x="470" y="400" width="70" height="30" as="geometry" />
        </mxCell>
        <mxCell id="1LIkeDpxG71c-wW24D8o-27" value="Volume" style="ellipse;whiteSpace=wrap;html=1;" vertex="1" parent="1">
          <mxGeometry x="530" y="460" width="70" height="30" as="geometry" />
        </mxCell>
        <mxCell id="1LIkeDpxG71c-wW24D8o-28" value="&lt;u&gt;Don_id&lt;/u&gt;" style="ellipse;whiteSpace=wrap;html=1;" vertex="1" parent="1">
          <mxGeometry x="215" y="420" width="70" height="30" as="geometry" />
        </mxCell>
        <mxCell id="1LIkeDpxG71c-wW24D8o-29" value="H_id" style="ellipse;whiteSpace=wrap;html=1;" vertex="1" parent="1">
          <mxGeometry x="200" y="490" width="70" height="30" as="geometry" />
        </mxCell>
        <mxCell id="1LIkeDpxG71c-wW24D8o-30" value="D_id" style="ellipse;whiteSpace=wrap;html=1;" vertex="1" parent="1">
          <mxGeometry x="430" y="535" width="70" height="30" as="geometry" />
        </mxCell>
        <mxCell id="1LIkeDpxG71c-wW24D8o-31" value="P_id" style="ellipse;whiteSpace=wrap;html=1;" vertex="1" parent="1">
          <mxGeometry x="285" y="535" width="70" height="30" as="geometry" />
        </mxCell>
        <mxCell id="1LIkeDpxG71c-wW24D8o-32" value="" style="endArrow=none;html=1;rounded=0;entryX=0.5;entryY=1;entryDx=0;entryDy=0;exitX=0.992;exitY=0.38;exitDx=0;exitDy=0;exitPerimeter=0;" edge="1" parent="1" source="1LIkeDpxG71c-wW24D8o-2" target="1LIkeDpxG71c-wW24D8o-26">
          <mxGeometry width="50" height="50" relative="1" as="geometry">
            <mxPoint x="440" y="470" as="sourcePoint" />
            <mxPoint x="490" y="420" as="targetPoint" />
          </mxGeometry>
        </mxCell>
        <mxCell id="1LIkeDpxG71c-wW24D8o-33" value="" style="endArrow=none;html=1;rounded=0;exitX=1;exitY=1;exitDx=0;exitDy=0;entryX=0.003;entryY=0.4;entryDx=0;entryDy=0;entryPerimeter=0;" edge="1" parent="1" source="1LIkeDpxG71c-wW24D8o-28" target="1LIkeDpxG71c-wW24D8o-2">
          <mxGeometry width="50" height="50" relative="1" as="geometry">
            <mxPoint x="280" y="490" as="sourcePoint" />
            <mxPoint x="319" y="463" as="targetPoint" />
          </mxGeometry>
        </mxCell>
        <mxCell id="1LIkeDpxG71c-wW24D8o-34" value="" style="endArrow=none;html=1;rounded=0;entryX=0;entryY=0.698;entryDx=0;entryDy=0;entryPerimeter=0;exitX=0.964;exitY=0.338;exitDx=0;exitDy=0;exitPerimeter=0;" edge="1" parent="1" source="1LIkeDpxG71c-wW24D8o-29" target="1LIkeDpxG71c-wW24D8o-2">
          <mxGeometry width="50" height="50" relative="1" as="geometry">
            <mxPoint x="270" y="501" as="sourcePoint" />
            <mxPoint x="314" y="517" as="targetPoint" />
          </mxGeometry>
        </mxCell>
        <mxCell id="1LIkeDpxG71c-wW24D8o-35" value="" style="endArrow=none;html=1;rounded=0;exitX=0.192;exitY=1.002;exitDx=0;exitDy=0;exitPerimeter=0;entryX=0.405;entryY=0.005;entryDx=0;entryDy=0;entryPerimeter=0;" edge="1" parent="1" source="1LIkeDpxG71c-wW24D8o-2" target="1LIkeDpxG71c-wW24D8o-31">
          <mxGeometry width="50" height="50" relative="1" as="geometry">
            <mxPoint x="296" y="518" as="sourcePoint" />
            <mxPoint x="330" y="530" as="targetPoint" />
          </mxGeometry>
        </mxCell>
        <mxCell id="1LIkeDpxG71c-wW24D8o-36" value="" style="endArrow=none;html=1;rounded=0;exitX=0.819;exitY=1.004;exitDx=0;exitDy=0;exitPerimeter=0;entryX=0.305;entryY=0.047;entryDx=0;entryDy=0;entryPerimeter=0;" edge="1" parent="1" source="1LIkeDpxG71c-wW24D8o-2" target="1LIkeDpxG71c-wW24D8o-30">
          <mxGeometry width="50" height="50" relative="1" as="geometry">
            <mxPoint x="403" y="520" as="sourcePoint" />
            <mxPoint x="447" y="537" as="targetPoint" />
          </mxGeometry>
        </mxCell>
        <mxCell id="1LIkeDpxG71c-wW24D8o-37" value="" style="endArrow=none;html=1;rounded=0;exitX=0.992;exitY=0.597;exitDx=0;exitDy=0;entryX=0.038;entryY=0.69;entryDx=0;entryDy=0;entryPerimeter=0;exitPerimeter=0;" edge="1" parent="1" source="1LIkeDpxG71c-wW24D8o-2" target="1LIkeDpxG71c-wW24D8o-27">
          <mxGeometry width="50" height="50" relative="1" as="geometry">
            <mxPoint x="436" y="473" as="sourcePoint" />
            <mxPoint x="480" y="490" as="targetPoint" />
          </mxGeometry>
        </mxCell>
        <mxCell id="1LIkeDpxG71c-wW24D8o-38" value="" style="endArrow=none;html=1;rounded=0;exitX=0.659;exitY=0.972;exitDx=0;exitDy=0;entryX=0.003;entryY=0.4;entryDx=0;entryDy=0;entryPerimeter=0;exitPerimeter=0;" edge="1" parent="1" source="1LIkeDpxG71c-wW24D8o-24">
          <mxGeometry width="50" height="50" relative="1" as="geometry">
            <mxPoint x="265" y="290" as="sourcePoint" />
            <mxPoint x="310" y="309" as="targetPoint" />
          </mxGeometry>
        </mxCell>
        <mxCell id="1LIkeDpxG71c-wW24D8o-39" value="" style="endArrow=none;html=1;rounded=0;exitX=1;exitY=1;exitDx=0;exitDy=0;entryX=0.27;entryY=0.943;entryDx=0;entryDy=0;entryPerimeter=0;" edge="1" parent="1" target="1LIkeDpxG71c-wW24D8o-22">
          <mxGeometry width="50" height="50" relative="1" as="geometry">
            <mxPoint x="430" y="300.5" as="sourcePoint" />
            <mxPoint x="475" y="319.5" as="targetPoint" />
          </mxGeometry>
        </mxCell>
        <mxCell id="1LIkeDpxG71c-wW24D8o-40" value="" style="endArrow=none;html=1;rounded=0;exitX=1;exitY=1;exitDx=0;exitDy=0;entryX=0.2;entryY=0.1;entryDx=0;entryDy=0;entryPerimeter=0;" edge="1" parent="1" target="1LIkeDpxG71c-wW24D8o-25">
          <mxGeometry width="50" height="50" relative="1" as="geometry">
            <mxPoint x="430" y="321" as="sourcePoint" />
            <mxPoint x="475" y="340" as="targetPoint" />
          </mxGeometry>
        </mxCell>
        <mxCell id="1LIkeDpxG71c-wW24D8o-41" value="" style="endArrow=none;html=1;rounded=0;exitX=0.571;exitY=0;exitDx=0;exitDy=0;entryX=-0.025;entryY=0.756;entryDx=0;entryDy=0;entryPerimeter=0;exitPerimeter=0;" edge="1" parent="1" source="1LIkeDpxG71c-wW24D8o-23">
          <mxGeometry width="50" height="50" relative="1" as="geometry">
            <mxPoint x="262.96999999999997" y="340" as="sourcePoint" />
            <mxPoint x="310" y="325.36" as="targetPoint" />
          </mxGeometry>
        </mxCell>
        <mxCell id="1LIkeDpxG71c-wW24D8o-42" value="" style="endArrow=none;html=1;rounded=0;exitX=0.43;exitY=1.003;exitDx=0;exitDy=0;entryX=0.467;entryY=0.006;entryDx=0;entryDy=0;entryPerimeter=0;exitPerimeter=0;" edge="1" parent="1" source="1LIkeDpxG71c-wW24D8o-7" target="1LIkeDpxG71c-wW24D8o-1">
          <mxGeometry width="50" height="50" relative="1" as="geometry">
            <mxPoint x="160" y="70" as="sourcePoint" />
            <mxPoint x="204" y="90" as="targetPoint" />
          </mxGeometry>
        </mxCell>
        <mxCell id="1LIkeDpxG71c-wW24D8o-43" value="" style="endArrow=none;html=1;rounded=0;exitX=0.739;exitY=0.948;exitDx=0;exitDy=0;entryX=0;entryY=0.01;entryDx=0;entryDy=0;entryPerimeter=0;exitPerimeter=0;" edge="1" parent="1" source="1LIkeDpxG71c-wW24D8o-6" target="1LIkeDpxG71c-wW24D8o-1">
          <mxGeometry width="50" height="50" relative="1" as="geometry">
            <mxPoint x="100" y="70" as="sourcePoint" />
            <mxPoint x="101" y="99" as="targetPoint" />
          </mxGeometry>
        </mxCell>
        <mxCell id="1LIkeDpxG71c-wW24D8o-44" value="" style="endArrow=none;html=1;rounded=0;exitX=0.399;exitY=0.986;exitDx=0;exitDy=0;entryX=1;entryY=0;entryDx=0;entryDy=0;exitPerimeter=0;" edge="1" parent="1" source="1LIkeDpxG71c-wW24D8o-8" target="1LIkeDpxG71c-wW24D8o-1">
          <mxGeometry width="50" height="50" relative="1" as="geometry">
            <mxPoint x="254.5" y="80" as="sourcePoint" />
            <mxPoint x="255.5" y="109" as="targetPoint" />
          </mxGeometry>
        </mxCell>
        <mxCell id="1LIkeDpxG71c-wW24D8o-45" value="" style="endArrow=none;html=1;rounded=0;exitX=0.996;exitY=0.578;exitDx=0;exitDy=0;entryX=-0.003;entryY=0.561;entryDx=0;entryDy=0;entryPerimeter=0;exitPerimeter=0;" edge="1" parent="1" source="1LIkeDpxG71c-wW24D8o-9" target="1LIkeDpxG71c-wW24D8o-1">
          <mxGeometry width="50" height="50" relative="1" as="geometry">
            <mxPoint x="110" y="106" as="sourcePoint" />
            <mxPoint x="111" y="135" as="targetPoint" />
          </mxGeometry>
        </mxCell>
        <mxCell id="1LIkeDpxG71c-wW24D8o-46" value="" style="endArrow=none;html=1;rounded=0;exitX=1;exitY=0.5;exitDx=0;exitDy=0;entryX=0.005;entryY=0.583;entryDx=0;entryDy=0;entryPerimeter=0;" edge="1" parent="1" source="1LIkeDpxG71c-wW24D8o-1" target="1LIkeDpxG71c-wW24D8o-10">
          <mxGeometry width="50" height="50" relative="1" as="geometry">
            <mxPoint x="249.5" y="106" as="sourcePoint" />
            <mxPoint x="250.5" y="135" as="targetPoint" />
          </mxGeometry>
        </mxCell>
        <mxCell id="1LIkeDpxG71c-wW24D8o-47" value="" style="endArrow=none;html=1;rounded=0;exitX=0.433;exitY=1.033;exitDx=0;exitDy=0;entryX=0.209;entryY=0.097;entryDx=0;entryDy=0;entryPerimeter=0;exitPerimeter=0;" edge="1" parent="1" target="1LIkeDpxG71c-wW24D8o-11">
          <mxGeometry width="50" height="50" relative="1" as="geometry">
            <mxPoint x="240" y="150" as="sourcePoint" />
            <mxPoint x="241" y="179" as="targetPoint" />
          </mxGeometry>
        </mxCell>
        <mxCell id="1LIkeDpxG71c-wW24D8o-48" value="" style="endArrow=none;html=1;rounded=0;exitX=0.433;exitY=1.033;exitDx=0;exitDy=0;entryX=0.921;entryY=0.218;entryDx=0;entryDy=0;entryPerimeter=0;exitPerimeter=0;" edge="1" parent="1" target="1LIkeDpxG71c-wW24D8o-13">
          <mxGeometry width="50" height="50" relative="1" as="geometry">
            <mxPoint x="120" y="150" as="sourcePoint" />
            <mxPoint x="121" y="179" as="targetPoint" />
          </mxGeometry>
        </mxCell>
        <mxCell id="1LIkeDpxG71c-wW24D8o-49" value="" style="endArrow=none;html=1;rounded=0;exitX=0.467;exitY=0.996;exitDx=0;exitDy=0;entryX=0.425;entryY=-0.001;entryDx=0;entryDy=0;entryPerimeter=0;exitPerimeter=0;" edge="1" parent="1" source="1LIkeDpxG71c-wW24D8o-1" target="1LIkeDpxG71c-wW24D8o-12">
          <mxGeometry width="50" height="50" relative="1" as="geometry">
            <mxPoint x="174.5" y="150" as="sourcePoint" />
            <mxPoint x="175.5" y="179" as="targetPoint" />
          </mxGeometry>
        </mxCell>
        <mxCell id="1LIkeDpxG71c-wW24D8o-51" value="" style="endArrow=none;html=1;rounded=0;exitX=0.43;exitY=1.003;exitDx=0;exitDy=0;entryX=0.5;entryY=0;entryDx=0;entryDy=0;exitPerimeter=0;" edge="1" parent="1" target="1LIkeDpxG71c-wW24D8o-4">
          <mxGeometry width="50" height="50" relative="1" as="geometry">
            <mxPoint x="534.5" y="50" as="sourcePoint" />
            <mxPoint x="535.5" y="80" as="targetPoint" />
          </mxGeometry>
        </mxCell>
        <mxCell id="1LIkeDpxG71c-wW24D8o-52" value="" style="endArrow=none;html=1;rounded=0;exitX=0.43;exitY=1.003;exitDx=0;exitDy=0;entryX=0.73;entryY=0.053;entryDx=0;entryDy=0;exitPerimeter=0;entryPerimeter=0;" edge="1" parent="1" target="1LIkeDpxG71c-wW24D8o-19">
          <mxGeometry width="50" height="50" relative="1" as="geometry">
            <mxPoint x="480" y="145" as="sourcePoint" />
            <mxPoint x="485.5" y="185" as="targetPoint" />
          </mxGeometry>
        </mxCell>
        <mxCell id="1LIkeDpxG71c-wW24D8o-53" value="" style="endArrow=none;html=1;rounded=0;exitX=0.265;exitY=0.942;exitDx=0;exitDy=0;exitPerimeter=0;" edge="1" parent="1" source="1LIkeDpxG71c-wW24D8o-16">
          <mxGeometry width="50" height="50" relative="1" as="geometry">
            <mxPoint x="640" y="65" as="sourcePoint" />
            <mxPoint x="600" y="90" as="targetPoint" />
          </mxGeometry>
        </mxCell>
        <mxCell id="1LIkeDpxG71c-wW24D8o-54" value="" style="endArrow=none;html=1;rounded=0;exitX=0.786;exitY=0.921;exitDx=0;exitDy=0;entryX=-0.001;entryY=0.087;entryDx=0;entryDy=0;exitPerimeter=0;entryPerimeter=0;" edge="1" parent="1" source="1LIkeDpxG71c-wW24D8o-14" target="1LIkeDpxG71c-wW24D8o-4">
          <mxGeometry width="50" height="50" relative="1" as="geometry">
            <mxPoint x="452.25" y="70" as="sourcePoint" />
            <mxPoint x="457.75" y="110" as="targetPoint" />
          </mxGeometry>
        </mxCell>
        <mxCell id="1LIkeDpxG71c-wW24D8o-55" value="" style="endArrow=none;html=1;rounded=0;exitX=0.43;exitY=1.003;exitDx=0;exitDy=0;entryX=0.002;entryY=0.601;entryDx=0;entryDy=0;exitPerimeter=0;entryPerimeter=0;" edge="1" parent="1" target="1LIkeDpxG71c-wW24D8o-4">
          <mxGeometry width="50" height="50" relative="1" as="geometry">
            <mxPoint x="455" y="120" as="sourcePoint" />
            <mxPoint x="460.5" y="160" as="targetPoint" />
          </mxGeometry>
        </mxCell>
        <mxCell id="1LIkeDpxG71c-wW24D8o-56" value="" style="endArrow=none;html=1;rounded=0;exitX=0.43;exitY=1.003;exitDx=0;exitDy=0;entryX=0.004;entryY=0.564;entryDx=0;entryDy=0;exitPerimeter=0;entryPerimeter=0;" edge="1" parent="1" target="1LIkeDpxG71c-wW24D8o-21">
          <mxGeometry width="50" height="50" relative="1" as="geometry">
            <mxPoint x="600" y="110" as="sourcePoint" />
            <mxPoint x="605.5" y="150" as="targetPoint" />
          </mxGeometry>
        </mxCell>
        <mxCell id="1LIkeDpxG71c-wW24D8o-57" value="" style="endArrow=none;html=1;rounded=0;exitX=0.5;exitY=1;exitDx=0;exitDy=0;entryX=0.5;entryY=0;entryDx=0;entryDy=0;" edge="1" parent="1" source="1LIkeDpxG71c-wW24D8o-4">
          <mxGeometry width="50" height="50" relative="1" as="geometry">
            <mxPoint x="537.25" y="150" as="sourcePoint" />
            <mxPoint x="542.75" y="190" as="targetPoint" />
          </mxGeometry>
        </mxCell>
        <mxCell id="1LIkeDpxG71c-wW24D8o-58" value="" style="endArrow=none;html=1;rounded=0;exitX=0.43;exitY=1.003;exitDx=0;exitDy=0;entryX=0.263;entryY=0.051;entryDx=0;entryDy=0;exitPerimeter=0;entryPerimeter=0;" edge="1" parent="1" target="1LIkeDpxG71c-wW24D8o-17">
          <mxGeometry width="50" height="50" relative="1" as="geometry">
            <mxPoint x="600" y="150" as="sourcePoint" />
            <mxPoint x="648" y="165" as="targetPoint" />
          </mxGeometry>
        </mxCell>
        <mxCell id="1LIkeDpxG71c-wW24D8o-59" value="" style="endArrow=none;html=1;rounded=0;entryX=1;entryY=0.5;entryDx=0;entryDy=0;" edge="1" parent="1" target="1LIkeDpxG71c-wW24D8o-60">
          <mxGeometry width="50" height="50" relative="1" as="geometry">
            <mxPoint x="310" y="280" as="sourcePoint" />
            <mxPoint x="290" y="250" as="targetPoint" />
          </mxGeometry>
        </mxCell>
        <mxCell id="1LIkeDpxG71c-wW24D8o-60" value="Gives" style="rhombus;whiteSpace=wrap;html=1;rotation=45;" vertex="1" parent="1">
          <mxGeometry x="230" y="210" width="50" height="20" as="geometry" />
        </mxCell>
        <mxCell id="1LIkeDpxG71c-wW24D8o-61" value="" style="endArrow=none;html=1;rounded=0;entryX=0.605;entryY=1.004;entryDx=0;entryDy=0;entryPerimeter=0;exitX=0;exitY=0.5;exitDx=0;exitDy=0;" edge="1" parent="1" source="1LIkeDpxG71c-wW24D8o-60" target="1LIkeDpxG71c-wW24D8o-1">
          <mxGeometry width="50" height="50" relative="1" as="geometry">
            <mxPoint x="235" y="200.99" as="sourcePoint" />
            <mxPoint x="192" y="149.01" as="targetPoint" />
          </mxGeometry>
        </mxCell>
        <mxCell id="1LIkeDpxG71c-wW24D8o-63" value="Take" style="rhombus;whiteSpace=wrap;html=1;rotation=-225;" vertex="1" parent="1">
          <mxGeometry x="439.99873734152914" y="209.99873734152916" width="50" height="20" as="geometry" />
        </mxCell>
        <mxCell id="1LIkeDpxG71c-wW24D8o-64" value="" style="endArrow=none;html=1;rounded=0;entryX=0.339;entryY=1.004;entryDx=0;entryDy=0;entryPerimeter=0;exitX=0;exitY=0.5;exitDx=0;exitDy=0;" edge="1" parent="1" source="1LIkeDpxG71c-wW24D8o-63" target="1LIkeDpxG71c-wW24D8o-4">
          <mxGeometry width="50" height="50" relative="1" as="geometry">
            <mxPoint x="543" y="201.98000000000002" as="sourcePoint" />
            <mxPoint x="500" y="150" as="targetPoint" />
          </mxGeometry>
        </mxCell>
        <mxCell id="1LIkeDpxG71c-wW24D8o-65" value="" style="endArrow=none;html=1;rounded=0;exitX=0.767;exitY=-0.007;exitDx=0;exitDy=0;exitPerimeter=0;entryX=1;entryY=0.5;entryDx=0;entryDy=0;" edge="1" parent="1" source="1LIkeDpxG71c-wW24D8o-3" target="1LIkeDpxG71c-wW24D8o-63">
          <mxGeometry width="50" height="50" relative="1" as="geometry">
            <mxPoint x="498" y="290.99" as="sourcePoint" />
            <mxPoint x="450" y="240" as="targetPoint" />
          </mxGeometry>
        </mxCell>
        <mxCell id="1LIkeDpxG71c-wW24D8o-66" value="&lt;font style=&quot;font-size: 9px;&quot;&gt;Maintain&lt;/font&gt;" style="rhombus;whiteSpace=wrap;html=1;rotation=90;" vertex="1" parent="1">
          <mxGeometry x="354.9987373415292" y="379.99873734152914" width="50" height="20" as="geometry" />
        </mxCell>
        <mxCell id="1LIkeDpxG71c-wW24D8o-67" value="" style="endArrow=none;html=1;rounded=0;exitX=0;exitY=0.5;exitDx=0;exitDy=0;entryX=0.585;entryY=0.993;entryDx=0;entryDy=0;entryPerimeter=0;" edge="1" parent="1" source="1LIkeDpxG71c-wW24D8o-66" target="1LIkeDpxG71c-wW24D8o-3">
          <mxGeometry width="50" height="50" relative="1" as="geometry">
            <mxPoint x="343" y="382" as="sourcePoint" />
            <mxPoint x="385" y="340" as="targetPoint" />
          </mxGeometry>
        </mxCell>
        <mxCell id="1LIkeDpxG71c-wW24D8o-68" value="" style="endArrow=none;html=1;rounded=0;exitX=0.5;exitY=0;exitDx=0;exitDy=0;entryX=1;entryY=0.5;entryDx=0;entryDy=0;" edge="1" parent="1" source="1LIkeDpxG71c-wW24D8o-2" target="1LIkeDpxG71c-wW24D8o-66">
          <mxGeometry width="50" height="50" relative="1" as="geometry">
            <mxPoint x="392.5" y="440" as="sourcePoint" />
            <mxPoint x="397.5" y="415" as="targetPoint" />
          </mxGeometry>
        </mxCell>
        <mxCell id="1LIkeDpxG71c-wW24D8o-69" value="M" style="text;html=1;align=center;verticalAlign=middle;resizable=0;points=[];autosize=1;strokeColor=none;fillColor=none;" vertex="1" parent="1">
          <mxGeometry x="190" y="140" width="30" height="30" as="geometry" />
        </mxCell>
        <mxCell id="1LIkeDpxG71c-wW24D8o-70" value="1" style="text;html=1;align=center;verticalAlign=middle;resizable=0;points=[];autosize=1;strokeColor=none;fillColor=none;" vertex="1" parent="1">
          <mxGeometry x="295" y="258" width="30" height="30" as="geometry" />
        </mxCell>
        <mxCell id="1LIkeDpxG71c-wW24D8o-71" value="1" style="text;html=1;align=center;verticalAlign=middle;resizable=0;points=[];autosize=1;strokeColor=none;fillColor=none;" vertex="1" parent="1">
          <mxGeometry x="385" y="258" width="30" height="30" as="geometry" />
        </mxCell>
        <mxCell id="1LIkeDpxG71c-wW24D8o-72" value="M" style="text;html=1;align=center;verticalAlign=middle;resizable=0;points=[];autosize=1;strokeColor=none;fillColor=none;" vertex="1" parent="1">
          <mxGeometry x="510" y="140" width="30" height="30" as="geometry" />
        </mxCell>
        <mxCell id="1LIkeDpxG71c-wW24D8o-73" value="M" style="text;html=1;align=center;verticalAlign=middle;resizable=0;points=[];autosize=1;strokeColor=none;fillColor=none;" vertex="1" parent="1">
          <mxGeometry x="355" y="418" width="30" height="30" as="geometry" />
        </mxCell>
        <mxCell id="1LIkeDpxG71c-wW24D8o-74" value="1" style="text;html=1;align=center;verticalAlign=middle;resizable=0;points=[];autosize=1;strokeColor=none;fillColor=none;" vertex="1" parent="1">
          <mxGeometry x="370" y="330" width="30" height="30" as="geometry" />
        </mxCell>
      </root>
    </mxGraphModel>
  </diagram>
</mxfile>
